# xmcd
#
# Track frame offsets: 
#        150
#        30490
#        77472
#        107722
#        138962
#        174175
#        193987
#        219367
#        249237
#        270500
#        298647
#
# Disc length: 4379 seconds
#
# Revision: 2
# Processed by: cddbd v1.5.1PL0 Copyright (c) Steve Scherf et al.
# Submitted via: ExactAudioCopy v0.95b2
#
DISCID=8e11190b
DTITLE=Art Pepper - The Hollywood All-Star Sessions - Disc 5
DYEAR=1980
DGENRE=Jazz
TTITLE0=I'm Getting Sentimental Over You
TTITLE1=I'm Getting Sentimental Over You (alternate)
TTITLE2=S'Wonderful
TTITLE3=Whims Of Chambers
TTITLE4=A Minor Blues In F
TTITLE5=High Jingo
TTITLE6=The Shadow Of Your Smile
TTITLE7=Anniversary Song
TTITLE8=Cherokee
TTITLE9=S'Wonderful (alternate)
TTITLE10=Whims of Chambers (alternate)
EXTD=YEAR: 1980
EXTT0=
EXTT1=
EXTT2=
EXTT3=
EXTT4=
EXTT5=
EXTT6=
EXTT7=
EXTT8=
EXTT9=
EXTT10=
PLAYORDER=
